General
Complete name                    : Batman Begins[2005]BRrip[Ac3-5.1]-=[CaLvIn]=-
Imdb Link                        : http://www.imdb.com/title/tt0372784
Format                           : AVI
Format/Info                      : Audio Video Interleave
File size                        : 1 003 MiB
Duration                         : 2h 20mn
Overall bit rate                 : 1 001 Kbps


Video
ID                               : 0
Format                           : MPEG-4 Visual
Format profile                   : Advanced Simple@L5
Format settings, BVOP            : 2
Format settings, QPel            : No
Format settings, GMC             : No warppoints
Format settings, Matrix          : Default (H.263)
Codec ID                         : XVID
Codec ID/Hint                    : XviD
Duration                         : 2h 20mn
Bit rate                         : 800 Kbps
Width                            : 720 pixels
Height                           : 304 pixels
Display aspect ratio             : 16:9
Frame rate                       : 23.976 fps
Color space                      : YUV
Chroma subsampling               : 4:2:0
Bit depth                        : 8 bits
Scan type                        : Progressive
Compression mode                 : Lossy
Bits/(Pixel*Frame)               : 0.152
Stream size                      : 801 MiB (80%)
Writing library                  : XviD 1.2.1 (UTC 2008-12-04)

Audio
ID                               : 1
Format                           : AC-3
Format/Info                      : Audio Coding 3
Mode extension                   : CM (complete main)
Codec ID                         : 2000
Duration                         : 2h 20mn
Bit rate mode                    : Constant
Bit rate                         : 192 Kbps
Channel(s)                       : 6 channels
Channel positions                : Front: L C R, Side: L R, LFE
Sampling rate                    : 48.0 KHz
Bit depth                        : 16 bits
Compression mode                 : Lossy
Stream size                      : 192 MiB (19%)
Alignment                        : Split accross interleaves
Interleave, duration             : 42 ms (1.00 video frame)
Interleave, preload duration     : 500 ms


Screens
 
http://img42.imageshack.us/img42/2559/32468497.png 
http://img685.imageshack.us/img685/705/88066544.png 
http://img805.imageshack.us/img805/6149/92502122.png 
http://img213.imageshack.us/img213/5293/70751736.png 
http://img687.imageshack.us/img687/6707/85226156.png 
http://img401.imageshack.us/img401/8488/59444847.png 
http://img337.imageshack.us/img337/6/34699268.png 
http://img151.imageshack.us/img151/1997/88511361.png 
http://img88.imageshack.us/img88/93/68081171.png 
http://img703.imageshack.us/img703/2029/76987174.png